# xmcd
#
# Track frame offsets:
#	150
#	14846
#	31317
#	46478
#	66228
#	82157
#	97183
#	120427
#	136311
#	155683
#	168077
#	180212
#
# Disc length: 2598 seconds
#
# Revision: 1
# Processed by: cddbd v1.5.1PL2 Copyright (c) Steve Scherf et al.
# Submitted via: audiograbber 1.83.01
#
DISCID=9e0a240c
DTITLE=Route Sixty-Six - Alive And Kickin' !
DYEAR=2004
DGENRE=Country
TTITLE0=I Love A Rainy Night
TTITLE1=Cajun Night On The Luisiana Bayou
TTITLE2=Smoke Smoke Smoke
TTITLE3=Like Water
TTITLE4=Cowboy Superman
TTITLE5=Old Red Lincoln
TTITLE6=Little Man
TTITLE7=Any Way You Want
TTITLE8=Fly Like An Eagle
TTITLE9=It's Gonna Take A Lot Of River
TTITLE10=New Road Under My Wheels
TTITLE11=Three Dogs In The Doghouse
EXTD=
EXTT0=
EXTT1=
EXTT2=
EXTT3=
EXTT4=
EXTT5=
EXTT6=
EXTT7=
EXTT8=
EXTT9=
EXTT10=
EXTT11=
PLAYORDER=
